# xmcd
#
# Track frame offsets: 
#        150
#        11250
#        23924
#        33649
#        46575
#        58884
#        74114
#        93458
#        104235
#        122824
#        134642
#        145321
#        155878
#        169040
#        183734
#        198315
#        218754
#        231902
#        245448
#        265404
#
# Disc length: 3705 seconds
#
# Revision: 0
# Processed by: cddbd v1.5.2PL0 Copyright (c) Steve Scherf et al.
# Submitted via: ExactAudioCopy v0.99pb5
#
DISCID=390e7714
DTITLE=Aretha Franklin  - 100 Hits Legends - CD1
DYEAR=1900
DGENRE=
TTITLE0=01 Respect
TTITLE1=02 Chani Of Fools
TTITLE2=03 Good Times
TTITLE3=04 I Never Loved A Man
TTITLE4=05 Baby I Love You
TTITLE5=06 Dr. Feelgood
TTITLE6=07 A Change Is Gonna Come
TTITLE7=08 Don't Let Me Lose This Dream
TTITLE8=09 Drown In My Own Tears
TTITLE9=10 Ain't Nobody
TTITLE10=11 96 Tears
TTITLE11=12 Save me
TTITLE12=13 Bay Baby
TTITLE13=14 Do Right Woman
TTITLE14=15 Night Life
TTITLE15=16 Going Down Slow
TTITLE16=17 Never Let Me Go
TTITLE17=18 Prove It
TTITLE18=19 I Wonder
TTITLE19=20 A Natural Woman
EXTD=
EXTT0=
EXTT1=
EXTT2=
EXTT3=
EXTT4=
EXTT5=
EXTT6=
EXTT7=
EXTT8=
EXTT9=
EXTT10=
EXTT11=
EXTT12=
EXTT13=
EXTT14=
EXTT15=
EXTT16=
EXTT17=
EXTT18=
EXTT19=
PLAYORDER=
